<svg xmlns="http://www.w3.org/2000/svg" viewBox="-14 -8 21 16">
  <title>Goldfish 4</title>
  <defs>
    <mask id="eye">
      <rect x="-14" y="-8" width="21" height="16" fill="white"/>
      <circle cx="4.3" cy="-1.05" r=".61" fill="black"/>
    </mask>
  </defs>
  <g fill="#d8b66a" mask="url(#eye)">
    <path d="M6.5 0C5.05-3.05 1.7-4.6-1.75-4.25-4.15-3.95-5.45-2.15-5.4-.8-5.25 2.35-2.55 4.75.8 4.55 3.8 4.35 5.75 2.2 6.5 0Z"/>
    <path d="M-5.1-1.45C-7.45-4.2-10.1-6.25-11.8-5.35-12.15-3.2-10.3-1.1-7.55-.1-10.55.8-12.8 3.35-12.45 6.35-9.7 6.8-6.65 3.75-5 1.4Z"/>
    <path d="M-1.45-4.2C-.55-6.1 1.55-6.35 2.55-4Z"/>
  </g>
</svg>
